<svg width="24" height="24" viewBox="0 0 24 24" fill="none" xmlns="http://www.w3.org/2000/svg">
<path d="M3.75 3.79688C6.03125 1.51562 8.78125 0.375 12 0.375C15.2188 0.375 17.9531 1.51562 20.2031 3.79688C22.4844 6.04688 23.625 8.78125 23.625 12C23.625 15.2188 22.4844 17.9688 20.2031 20.25C17.9531 22.5 15.2188 23.625 12 23.625C8.78125 23.625 6.03125 22.5 3.75 20.25C1.5 17.9688 0.375 15.2188 0.375 12C0.375 8.78125 1.5 6.04688 3.75 3.79688ZM5.34375 18.6562C7.1875 20.4688 9.40625 21.375 12 21.375C14.5938 21.375 16.7969 20.4688 18.6094 18.6562C20.4531 16.8125 21.375 14.5938 21.375 12C21.375 9.40625 20.4531 7.20313 18.6094 5.39062C16.7969 3.54688 14.5938 2.625 12 2.625C9.40625 2.625 7.1875 3.54688 5.34375 5.39062C3.53125 7.20313 2.625 9.40625 2.625 12C2.625 14.5938 3.53125 16.8125 5.34375 18.6562ZM16.7812 9.09375L13.875 12L16.7812 14.9062C17.0312 15.1875 17.0312 15.4531 16.7812 15.7031L15.7031 16.7812C15.4531 17.0312 15.1875 17.0312 14.9062 16.7812L12 13.875L9.09375 16.7812C8.8125 17.0312 8.54688 17.0312 8.29688 16.7812L7.21875 15.7031C6.96875 15.4531 6.96875 15.1875 7.21875 14.9062L10.125 12L7.21875 9.09375C6.96875 8.8125 6.96875 8.54688 7.21875 8.29688L8.29688 7.21875C8.54688 6.96875 8.8125 6.96875 9.09375 7.21875L12 10.125L14.9062 7.21875C15.1875 6.96875 15.4531 6.96875 15.7031 7.21875L16.7812 8.29688C17.0312 8.54688 17.0312 8.8125 16.7812 9.09375Z" fill="#FAF7FD"/>
</svg>
